<svg xmlns="http://www.w3.org/2000/svg" viewBox="0 0 96 96">
  <rect width="96" height="96" rx="18" fill="#17181c"/>
  <!-- First glyph of the wordmark, cropped from the full logo path -->
  <svg x="10" y="12" width="76" height="72" viewBox="0 0 78 92" fill="#e9e7df">
    <path d="M159.8 50c.1 18.4-6.1 20.9-9.6 22.1-7.8 2.7-11.9-8.1-11.9-8.2-3.2-7.2-7.5-12.2-12-15.7 14.6-8.7 17.1-24.2 17.1-38.2V1.2l-62.6.1-.1 52c-.1 6.9-.6 19.4-9.7 19.4-2.7 0-7 0-7-12.9l.1-59H49.8C17.8.8 1.5 16.9 1.5 48.7v35.4H16V48.7c0-23.6 9.7-33.3 33.6-33.4v26H24.1v14.5h25.5v3.9c0 20.2 10.1 27.4 21.5 27.4 17.2 0 23.5-16.1 24.2-31.9V40.6l.1-24.9h33.4c-1 14.7-6.7 23-26.4 24.7V55c.7-.1 2.2 0 2.2 0 .1 0 13.8-.5 20.6 14.7 3.4 7.7 11.1 17.3 22.6 17.3 2.3 0 3.7-.4 6.2-1.2 13.3-4.5 20.2-16.2 20.4-34.5v-1.4-.6l.1-33.9h35.7v20.5c0 24-10.1 34.3-33.8 34.3v14.5c31.6 0 48.3-16.9 48.3-48.7V.8L160 .9l-.2 49.1z"/>
  </svg>
</svg>
